# 3ds Max Wavefront OBJ Exporter v0.97b - (c)2007 guruware
# File Created: 08.12.2016 16:13:06

mtllib testScene.mtl

#
# object Plane001
#

v  -51.0081 0.0000 20.7897
v  -51.0081 0.0000 50.0456
v  -25.0947 0.0000 50.0456
v  -25.0947 0.0000 20.7897
v  0.8186 0.0000 50.0456
v  0.8186 0.0000 20.7897
v  26.7320 0.0000 50.0456
v  26.7320 0.0000 20.7897
v  52.6454 0.0000 50.0456
v  52.6454 0.0000 20.7897
v  -51.0081 0.0000 -8.4662
v  -25.0947 0.0000 -8.4662
v  0.8186 0.0000 -8.4662
v  26.7320 0.0000 -8.4662
v  52.6454 0.0000 -8.4662
v  -51.0081 0.0000 -37.7222
v  -25.0947 0.0000 -37.7222
v  0.8186 0.0000 -37.7222
v  26.7320 0.0000 -37.7222
v  52.6454 0.0000 -37.7222
v  -51.0081 0.0000 -66.9781
v  -25.0947 0.0000 -66.9781
v  0.8186 0.0000 -66.9781
v  26.7320 0.0000 -66.9781
v  52.6454 0.0000 -66.9781
# 25 vertices

vn 0.0000 1.0000 -0.0000
# 1 vertex normals

vt 0.0000 0.2500 0.0000
vt 0.0000 0.0000 0.0000
vt 0.2500 0.0000 0.0000
vt 0.2500 0.2500 0.0000
vt 0.5000 0.0000 0.0000
vt 0.5000 0.2500 0.0000
vt 0.7500 0.0000 0.0000
vt 0.7500 0.2500 0.0000
vt 1.0000 0.0000 0.0000
vt 1.0000 0.2500 0.0000
vt 0.0000 0.5000 0.0000
vt 0.2500 0.5000 0.0000
vt 0.5000 0.5000 0.0000
vt 0.7500 0.5000 0.0000
vt 1.0000 0.5000 0.0000
vt 0.0000 0.7500 0.0000
vt 0.2500 0.7500 0.0000
vt 0.5000 0.7500 0.0000
vt 0.7500 0.7500 0.0000
vt 1.0000 0.7500 0.0000
vt 0.0000 1.0000 0.0000
vt 0.2500 1.0000 0.0000
vt 0.5000 1.0000 0.0000
vt 0.7500 1.0000 0.0000
vt 1.0000 1.0000 0.0000
# 25 texture coords

g Plane001
usemtl wire_088144225
s 1
f 1/1/1 2/2/1 3/3/1 4/4/1 
f 4/4/1 3/3/1 5/5/1 6/6/1 
f 6/6/1 5/5/1 7/7/1 8/8/1 
f 8/8/1 7/7/1 9/9/1 10/10/1 
f 11/11/1 1/1/1 4/4/1 12/12/1 
f 12/12/1 4/4/1 6/6/1 13/13/1 
f 13/13/1 6/6/1 8/8/1 14/14/1 
f 14/14/1 8/8/1 10/10/1 15/15/1 
f 16/16/1 11/11/1 12/12/1 17/17/1 
f 17/17/1 12/12/1 13/13/1 18/18/1 
f 18/18/1 13/13/1 14/14/1 19/19/1 
f 19/19/1 14/14/1 15/15/1 20/20/1 
f 21/21/1 16/16/1 17/17/1 22/22/1 
f 22/22/1 17/17/1 18/18/1 23/23/1 
f 23/23/1 18/18/1 19/19/1 24/24/1 
f 24/24/1 19/19/1 20/20/1 25/25/1 
# 16 polygons

#
# object Box001
#

v  -37.4510 0.0000 -37.3704
v  -37.4510 0.0000 -51.1096
v  -24.6205 0.0000 -51.1096
v  -24.6205 0.0000 -37.3704
v  -37.4510 7.7888 -37.3704
v  -24.6205 7.7888 -37.3704
v  -24.6205 7.7888 -51.1096
v  -37.4510 7.7888 -51.1096
# 8 vertices

vn 0.0000 -1.0000 -0.0000
vn 0.0000 1.0000 -0.0000
vn 0.0000 0.0000 1.0000
vn 1.0000 0.0000 -0.0000
vn 0.0000 0.0000 -1.0000
vn -1.0000 0.0000 -0.0000
# 6 vertex normals

vt 1.0000 0.0000 0.0000
vt 1.0000 1.0000 0.0000
vt 0.0000 1.0000 0.0000
vt 0.0000 0.0000 0.0000
# 4 texture coords

g Box001
usemtl wire_061135006
s 2
f 26/26/2 27/27/2 28/28/2 29/29/2 
s 4
f 30/29/3 31/26/3 32/27/3 33/28/3 
s 8
f 26/29/4 29/26/4 31/27/4 30/28/4 
s 16
f 29/29/5 28/26/5 32/27/5 31/28/5 
s 32
f 28/29/6 27/26/6 33/27/6 32/28/6 
s 64
f 27/29/7 26/26/7 30/27/7 33/28/7 
# 6 polygons

#
# object Box002
#

v  32.3262 0.0000 -39.3427
v  32.3262 0.0000 -50.0808
v  41.2123 0.0000 -50.0808
v  41.2123 0.0000 -39.3427
v  32.3262 22.1328 -39.3427
v  41.2123 22.1328 -39.3427
v  41.2123 22.1328 -50.0808
v  32.3262 22.1328 -50.0808
# 8 vertices

vn 0.0000 -1.0000 -0.0000
vn 0.0000 1.0000 -0.0000
vn 0.0000 0.0000 1.0000
vn 1.0000 0.0000 -0.0000
vn 0.0000 0.0000 -1.0000
vn -1.0000 0.0000 -0.0000
# 6 vertex normals

vt 1.0000 0.0000 0.0000
vt 1.0000 1.0000 0.0000
vt 0.0000 1.0000 0.0000
vt 0.0000 0.0000 0.0000
# 4 texture coords

g Box002
usemtl wire_145028177
s 2
f 34/30/8 35/31/8 36/32/8 37/33/8 
s 4
f 38/33/9 39/30/9 40/31/9 41/32/9 
s 8
f 34/33/10 37/30/10 39/31/10 38/32/10 
s 16
f 37/33/11 36/30/11 40/31/11 39/32/11 
s 32
f 36/33/12 35/30/12 41/31/12 40/32/12 
s 64
f 35/33/13 34/30/13 38/31/13 41/32/13 
# 6 polygons

#
# object Box003
#

v  6.9866 0.0000 32.9370
v  6.9866 0.0000 9.4729
v  23.1315 0.0000 9.4729
v  23.1315 0.0000 32.9370
v  6.9866 4.3617 32.9370
v  23.1315 4.3617 32.9370
v  23.1315 4.3617 9.4729
v  6.9866 4.3617 9.4729
# 8 vertices

vn 0.0000 -1.0000 -0.0000
vn 0.0000 1.0000 -0.0000
vn 0.0000 0.0000 1.0000
vn 1.0000 0.0000 -0.0000
vn 0.0000 0.0000 -1.0000
vn -1.0000 0.0000 -0.0000
# 6 vertex normals

vt 1.0000 0.0000 0.0000
vt 1.0000 1.0000 0.0000
vt 0.0000 1.0000 0.0000
vt 0.0000 0.0000 0.0000
# 4 texture coords

g Box003
usemtl wire_028149177
s 2
f 42/34/14 43/35/14 44/36/14 45/37/14 
s 4
f 46/37/15 47/34/15 48/35/15 49/36/15 
s 8
f 42/37/16 45/34/16 47/35/16 46/36/16 
s 16
f 45/37/17 44/34/17 48/35/17 47/36/17 
s 32
f 44/37/18 43/34/18 49/35/18 48/36/18 
s 64
f 43/37/19 42/34/19 46/35/19 49/36/19 
# 6 polygons

